<?xml version="1.0" standalone="no"?>
<!DOCTYPE svg PUBLIC "-//W3C//DTD SVG 20010904//EN"
 "http://www.w3.org/TR/2001/REC-SVG-20010904/DTD/svg10.dtd">
<svg version="1.0" xmlns="http://www.w3.org/2000/svg"
 width="2000.000000pt" height="767.000000pt" viewBox="0 0 2000.000000 767.000000"
 preserveAspectRatio="xMidYMid meet">

<g transform="translate(0.000000,767.000000) scale(0.100000,-0.100000)"
fill="#000000" stroke="none">
<path d="M9472 4303 l3 -938 23 -60 c63 -168 200 -258 415 -272 l87 -6 0 121
0 121 -54 11 c-92 19 -158 75 -189 161 -9 26 -12 246 -12 914 l0 880 -138 3
-138 3 3 -938z"/>
<path d="M16630 4135 l0 -1105 70 0 69 0 41 59 c22 33 44 62 48 65 5 3 30 -10
56 -29 26 -18 82 -46 124 -62 71 -26 88 -28 217 -28 119 0 151 4 215 23 118
37 187 79 276 168 68 66 90 97 128 175 25 52 55 132 66 179 27 111 37 309 21
420 -43 290 -230 521 -484 599 -90 27 -234 37 -312 21 -75 -15 -201 -72 -237
-107 l-28 -27 0 377 0 377 -135 0 -135 0 0 -1105z m640 255 c202 -32 351 -179
396 -390 23 -107 14 -337 -16 -435 -54 -173 -151 -259 -337 -295 -101 -20
-206 -9 -286 29 -37 18 -81 44 -97 58 l-30 25 0 448 0 449 33 24 c41 31 110
67 162 83 50 16 92 17 175 4z"/>
<path d="M6270 4110 l0 -1060 625 0 625 0 0 135 0 135 -480 0 -480 0 0 380 0
380 350 0 350 0 0 120 0 120 -350 0 -350 0 0 295 0 295 490 0 490 0 0 130 0
130 -635 0 -635 0 0 -1060z"/>
<path d="M13100 4110 l0 -1060 145 0 145 0 0 515 0 515 460 0 460 0 0 -515 0
-515 145 0 145 0 0 1060 0 1060 -145 0 -145 0 0 -425 0 -425 -460 0 -460 0 0
425 0 425 -145 0 -145 0 0 -1060z"/>
<path d="M10828 4620 c-279 -51 -500 -264 -579 -560 -32 -120 -33 -377 -1
-492 38 -140 86 -222 192 -329 79 -80 109 -103 180 -138 106 -52 195 -71 331
-71 177 0 350 40 475 111 83 47 83 45 20 154 -31 52 -58 95 -60 95 -2 0 -30
-18 -62 -39 -86 -57 -170 -83 -289 -89 -118 -5 -191 8 -273 49 -144 72 -251
260 -252 442 l0 47 555 0 555 0 7 28 c5 15 8 88 8 162 -1 124 -3 142 -31 220
-70 199 -213 330 -424 390 -84 23 -275 35 -352 20z m222 -230 c155 -29 266
-132 306 -285 8 -27 14 -62 14 -77 l0 -28 -426 0 -426 0 7 48 c17 118 114 246
228 302 96 47 192 60 297 40z"/>
<path d="M12544 4614 c-110 -26 -233 -120 -301 -230 -10 -15 -12 3 -12 99 l-1
117 -140 0 -140 0 0 -775 0 -775 140 0 140 0 0 488 c0 304 4 502 10 527 54
208 216 350 376 331 30 -3 78 -18 106 -32 27 -14 51 -24 52 -22 8 10 106 248
106 256 0 11 -147 32 -220 31 -30 0 -83 -7 -116 -15z"/>
<path d="M7823 4018 c3 -503 5 -590 20 -637 55 -183 169 -296 339 -336 73 -17
213 -19 278 -4 87 20 209 87 277 153 l63 62 0 -103 0 -104 138 3 137 3 3 773
2 772 -140 0 -140 0 0 -548 0 -548 -28 -45 c-39 -61 -113 -124 -191 -162 -61
-29 -73 -32 -171 -32 -118 0 -169 17 -226 74 -87 86 -96 165 -92 789 l3 472
-138 0 -138 0 4 -582z"/>
<path d="M15003 4018 c3 -503 5 -590 20 -637 55 -183 169 -296 339 -336 73
-17 213 -19 278 -4 89 20 211 88 277 154 l63 63 0 -104 0 -105 138 3 137 3 3
773 2 772 -140 0 -140 0 0 -548 0 -548 -28 -45 c-39 -61 -113 -124 -191 -162
-61 -29 -73 -32 -171 -32 -86 0 -113 4 -150 21 -96 44 -144 122 -160 261 -5
48 -10 305 -10 571 l0 482 -136 0 -135 0 4 -582z"/>
</g>
</svg>
